<?xml version="1.0" encoding="utf-8"?>
<!-- Generator: Adobe Illustrator 24.1.2, SVG Export Plug-In . SVG Version: 6.00 Build 0)  -->
<svg version="1.1" id="Layer_1" xmlns="http://www.w3.org/2000/svg" xmlns:xlink="http://www.w3.org/1999/xlink" x="0px" y="0px"
	 viewBox="0 0 772.29 800" style="enable-background:new 0 0 772.29 800;" xml:space="preserve">
<style type="text/css">
	.st0{clip-path:url(#SVGID_2_);fill:none;stroke:#FFFFFF;}
	.st1{fill:none;stroke:#FFFFFF;}
	.st2{clip-path:url(#SVGID_4_);fill:none;stroke:#FFFFFF;}
	.st3{fill:#FFFFFF;}
</style>
<g>
	<rect x="3" y="3" width="445.74" height="445.74"/>
	<path class="st3" d="M445.74,6v439.74H6V6H445.74 M451.74,0H0v451.74h451.74V0L451.74,0z"/>
</g>
<g>
	<rect x="109.85" y="119.09" width="445.74" height="445.74"/>
	<path class="st3" d="M552.59,122.09v439.74H112.85V122.09H552.59 M558.59,116.09H106.85v451.74h451.74V116.09L558.59,116.09z"/>
</g>
<g>
	<rect x="216.7" y="235.17" width="445.74" height="445.74"/>
	<path class="st3" d="M659.44,238.17v439.74H219.7V238.17H659.44 M665.44,232.17H213.7v451.74h451.74V232.17L665.44,232.17z"/>
</g>
<g>
	<rect x="323.55" y="351.26" width="445.74" height="445.74"/>
	<path class="st3" d="M766.29,354.26V794H326.55V354.26H766.29 M772.29,348.26H320.55V800h451.74V348.26L772.29,348.26z"/>
</g>
</svg>
