<?xml version="1.0" encoding="utf-8"?>
<!-- Generator: Adobe Illustrator 21.1.0, SVG Export Plug-In . SVG Version: 6.00 Build 0)  -->
<svg version="1.1" id="Layer_1" xmlns="http://www.w3.org/2000/svg" xmlns:xlink="http://www.w3.org/1999/xlink" x="0px" y="0px"
	 viewBox="0 0 372.5 59.2" style="enable-background:new 0 0 372.5 59.2;" xml:space="preserve">
<style type="text/css">
	.st0{fill:#FFFFFF;}
</style>
<g>
	<g>
		<path class="st0" d="M0,37.6h1.7C2,49,8.4,56.1,16,56.1c5.7,0,9.3-3.6,9.3-8.9c0-6.3-6.6-11.1-13.6-17C3.8,23.4,0,19.9,0,12.5
			C0,4.4,6.2,0,13.8,0s10.7,4.8,12.4,4.8c0.8,0,1.1-0.6,1.1-3.7H29v16.5h-1.7C27,9,21.9,2.9,14.6,2.9c-5.8,0-8.4,3.4-8.4,7.2
			c0,5.3,5.3,8.8,10.5,13.3c9.2,7.9,14.8,11.9,14.8,21.3c0,9.2-7.4,14.3-14.7,14.3C8,59,5.2,53.9,3.2,53.9c-1.1,0-1.5,1.1-1.5,4H0
			C0,57.9,0,37.6,0,37.6z"/>
		<path class="st0" d="M36.8,55.9c6.5,0,7.5-1.3,7.5-5.5V8.6c0-4.3-1-5.5-7.5-5.5V1.4h21.8c12.5,0,19.9,5.2,19.9,16.2
			s-8.1,16-16.9,16c-3.5,0-6.6-0.6-9.6-1.5v18.2c0,4.3,1,5.5,7.5,5.5v1.7H36.8V55.9z M69.9,17.6c0-8.8-5.1-13.3-11.6-13.3
			c-2.3,0-4.2,0.4-6.2,1.3v23.7c2.4,0.8,4.6,1.4,7.4,1.4C65.5,30.7,69.9,25.9,69.9,17.6z"/>
		<path class="st0" d="M82.1,3.1V1.4H105v1.7c-6.5,0-7.5,1.3-7.5,5.5v41.7c0,4.3,1,5.5,7.5,5.5v1.7H82.1v-1.7c6.5,0,7.5-1.3,7.5-5.5
			V8.6C89.6,4.4,88.6,3.1,82.1,3.1z"/>
		<path class="st0" d="M159.2,3.1c-6.5,0-7.4,1.3-7.4,5.5v50.6h-3.5l-30.1-48.9v40c0,4.3,1,5.5,7.5,5.5v1.7h-17.9v-1.7
			c6.5,0,7.5-1.3,7.5-5.5V5.8c-1.9-2.3-4-2.7-7.5-2.7V1.4h14.7l26,42.6h0.2V8.6c0-4.3-0.9-5.5-7.4-5.5V1.4h17.8L159.2,3.1L159.2,3.1
			z"/>
		<path class="st0" d="M199.5,3.3l1.3,11.3l-1.7,0.2c-1.1-9-2.5-10.5-6.8-10.5h-15v22.3h9.2c4.3,0,5.5-1,5.5-8.2h1.7v19.4H192
			c0-7.2-1.3-8.2-5.5-8.2h-9.2v21.1c0,3.3,0.6,4,3.3,4h12.6c4.3,0,6.1-2,9.1-12.6l1.6,0.4l-3.7,13.3l-0.5,1.8h-37.8v-1.7
			c6.5,0,7.5-1.3,7.5-5.5V8.6c0-4.3-1-5.5-7.5-5.5V1.4h37.4L199.5,3.3z"/>
	</g>
	<g>
		<path class="st0" d="M247.5,3.1c-6.5,0-7.9,1.3-9.4,5.5L223.8,50c-1.4,4-0.8,4.7,2.7,4.7h10.6c4.3,0,6.7-2,13.5-13.3l1.5,0.4
			l-8.4,14l-1,1.7h-36.9l0.6-1.7c6.5,0,7.9-1.3,9.4-5.5l14.4-41.7c1.5-4.3,0.9-5.5-5.6-5.5l0.6-1.7h22.9L247.5,3.1z"/>
	</g>
	<g>
		<path class="st0" d="M292.6,3.3l1.3,11.3l-1.7,0.2c-1.1-9-2.5-10.5-6.8-10.5h-15v22.3h9.2c4.3,0,5.5-1,5.5-8.2h1.7v19.4h-1.7
			c0-7.2-1.3-8.2-5.5-8.2h-9.2v21.1c0,3.3,0.6,4,3.3,4h12.6c4.3,0,6.1-2,9.1-12.6l1.6,0.4l-3.7,13.3l-0.5,1.8H255v-1.7
			c6.5,0,7.5-1.3,7.5-5.5V8.6c0-4.3-1-5.5-7.5-5.5V1.4h37.4L292.6,3.3z"/>
		<path class="st0" d="M301.7,37.6h1.7c0.3,11.4,6.7,18.5,14.3,18.5c5.7,0,9.3-3.6,9.3-8.9c0-6.3-6.6-11.1-13.6-17
			c-7.9-6.8-11.7-10.3-11.7-17.7c0-8.1,6.2-12.5,13.8-12.5c7.6,0,10.7,4.8,12.4,4.8c0.8,0,1.1-0.6,1.1-3.7h1.7v16.5H329
			c-0.3-8.6-5.3-14.7-12.7-14.7c-5.8,0-8.4,3.4-8.4,7.2c0,5.3,5.3,8.8,10.5,13.3c9.2,7.9,14.8,11.9,14.8,21.3
			c0,9.2-7.4,14.3-14.7,14.3c-8.8,0-11.6-5.1-13.6-5.1c-1.1,0-1.5,1.1-1.5,4h-1.7L301.7,37.6L301.7,37.6z"/>
		<path class="st0" d="M341,37.6h1.7C343,49,349.4,56.1,357,56.1c5.7,0,9.3-3.6,9.3-8.9c0-6.3-6.6-11.1-13.6-17
			c-7.9-6.8-11.7-10.3-11.7-17.7C341,4.4,347.2,0,354.8,0c7.6,0,10.7,4.8,12.4,4.8c0.8,0,1.1-0.6,1.1-3.7h1.7v16.5h-1.7
			C368,9,363,2.9,355.6,2.9c-5.8,0-8.4,3.4-8.4,7.2c0,5.3,5.3,8.8,10.5,13.3c9.2,7.9,14.8,11.9,14.8,21.3c0,9.2-7.4,14.3-14.7,14.3
			c-8.8,0-11.6-5.1-13.6-5.1c-1.1,0-1.5,1.1-1.5,4H341L341,37.6L341,37.6z"/>
	</g>
</g>
</svg>
